<svg xmlns="http://www.w3.org/2000/svg" width="170" height="42" viewBox="0 0 170 42">
    <g fill="#FFF" fill-rule="evenodd">
        <path d="M82.152 21.902c.43-1.892 1.619-2.923 3.387-2.923 2.262 0 3.125 1.484 3.431 2.923h-6.818zm12.295 3.276c-.11-6.45-3.576-10.457-9.048-10.457-5.182 0-8.801 3.9-8.801 9.485 0 5.564 3.763 9.45 9.152 9.45 4.162 0 7.42-2.266 8.502-5.915l.183-.619h-5.358l-.137.254c-.694 1.29-1.76 1.918-3.26 1.918-2.468 0-3.364-1.863-3.66-3.625h12.435l-.008-.49zM114.208 8.87H93.866v4.644h7.407V33.2h5.599V13.514h7.336z"/>
        <path d="M120.639 14.826c-1.435 0-2.697.587-3.765 1.75v-1.4h-5.247v18.025h5.247v-9.135c0-2.857 1.552-4.563 4.15-4.563.128 0 .427 0 .678.032l.543.067v-4.649l-.423-.053c-.592-.074-.866-.074-1.183-.074M134.792 25.187c0 1.346-.18 2.07-.671 2.683-.505.653-1.43 1.074-2.356 1.074-1.171 0-1.994-.53-2.314-1.493-.185-.552-.222-.81-.222-2.51v-9.764h-5.248v10.01c0 2.248.072 3.12.335 4.06.807 2.72 3.069 4.41 5.904 4.41 1.681 0 3.094-.501 4.572-1.65v1.194h5.249V15.177h-5.249v10.01zM156.491 23.545c-1.016-.787-2.107-1.162-4.67-1.6-2.347-.413-3.104-.587-3.681-.843-.39-.17-.624-.463-.624-.785 0-.87 1.072-1.48 2.606-1.48 1.666 0 2.572.625 2.937 2.022l.095.361h4.664l-.055-.531c-.376-3.682-3.358-5.968-7.781-5.968-4.246 0-7.328 2.516-7.328 5.982 0 1.666.793 3.055 2.292 4.013 1.127.725 2.978 1.304 5.832 1.822 2.394.405 2.512.757 2.512 1.346 0 1.005-1.093 1.655-2.782 1.655-2.013 0-3.046-.732-3.35-2.373l-.074-.394h-4.868l.054.53c.413 4.038 3.428 6.354 8.273 6.354 4.635 0 7.749-2.432 7.749-6.052 0-1.658-.635-3.096-1.8-4.059M168.903 29.12l-1.162.034c-.555 0-1.01-.152-1.203-.414-.165-.208-.245-.447-.245-1.73v-8.173h3.23v-3.66h-3.23V9.501h-5.248v5.674h-2.387v3.661h2.387v8.172c0 1.649.042 2.323.185 3 .278 1.428 1.041 2.37 2.325 2.875.705.29 1.108.317 2.676.317h3.537v-4.168l-.865.087zM71.578 8.87L67.615 25.1 64.35 8.87H58.82l-3.345 16.31L51.27 8.87H45.51l7.274 24.33h5.242l3.502-16.122L64.967 33.2h5.142l7.054-24.33zM30.5 13.468H11.2v5.797h6.608V32.39h5.756V19.265H30.5z"/>
        <path d="M20.859 0C9.339 0 0 9.32 0 20.817c0 11.498 9.338 20.819 20.859 20.819 11.52 0 20.858-9.321 20.858-20.819C41.717 9.321 32.38 0 20.86 0m0 5.302c8.571 0 15.546 6.96 15.546 15.515 0 8.556-6.975 15.517-15.546 15.517-8.572 0-15.546-6.96-15.546-15.517 0-8.554 6.974-15.515 15.546-15.515"/>
    </g>
</svg>
